<svg width="143" height="34" viewBox="0 0 143 34" xmlns="http://www.w3.org/2000/svg">
    <g fill="none" fill-rule="evenodd">
        <path d="M9.463 17.007H3.266V3.368h6.197c1.423 0 2.686.294 3.789.881a6.716 6.716 0 0 1 2.617 2.455c.642 1.05.963 2.26.963 3.63 0 1.288-.321 2.434-.963 3.442-.643 1.007-1.515 1.797-2.617 2.37-1.103.574-2.366.861-3.79.861zm4.103 2.474c.462-.165.91-.359 1.34-.586 1.59-.839 2.84-2 3.747-3.483.907-1.482 1.361-3.175 1.361-5.078 0-1.986-.454-3.741-1.36-5.266-.908-1.525-2.157-2.713-3.748-3.567C13.315.647 11.5.22 9.463.22h-7.83C1.158.22.767.375.46.682.153.99 0 1.382 0 1.857V31.36c0 .476.153.868.46 1.175.307.309.698.462 1.173.462.474 0 .865-.153 1.172-.462.307-.307.46-.699.46-1.175V20.154h6.198c.244 0 .485-.007.723-.019l7.525 12.022c.168.28.356.49.565.629.21.14.496.21.859.21.753 0 1.263-.252 1.528-.755.265-.504.188-1.092-.23-1.763l-6.867-10.997zM49.909 21.597a14.155 14.155 0 0 1-2.417 4.407 12.168 12.168 0 0 1-3.822 3.139c-1.49.784-3.17 1.176-5.042 1.176-1.78 0-3.415-.376-4.903-1.13a12.124 12.124 0 0 1-3.845-3.046 13.974 13.974 0 0 1-2.486-4.384 15.283 15.283 0 0 1-.875-5.146c0-1.691.283-3.353.852-4.984a14.54 14.54 0 0 1 2.44-4.407 11.894 11.894 0 0 1 3.822-3.115c1.488-.769 3.154-1.154 4.995-1.154 1.78 0 3.408.37 4.881 1.108a12.052 12.052 0 0 1 3.845 3.046 14.133 14.133 0 0 1 2.509 4.384 15.11 15.11 0 0 1 .875 5.122c0 1.692-.276 3.354-.829 4.984m-.161-16.336a15.181 15.181 0 0 0-4.812-3.83C43.064.477 40.976 0 38.674 0c-2.18 0-4.205.454-6.077 1.361a15.812 15.812 0 0 0-4.904 3.692 17.07 17.07 0 0 0-3.246 5.307 17.18 17.18 0 0 0-1.151 6.253c0 2.093.368 4.13 1.105 6.115a17.636 17.636 0 0 0 3.13 5.353 14.99 14.99 0 0 0 4.835 3.761c1.872.923 3.96 1.385 6.262 1.385 2.18 0 4.205-.446 6.078-1.339a15.236 15.236 0 0 0 4.88-3.668 17.316 17.316 0 0 0 3.224-5.308 17.193 17.193 0 0 0 1.15-6.252c0-2.062-.368-4.077-1.104-6.046a18.304 18.304 0 0 0-3.108-5.353M83.585 21.597a14.155 14.155 0 0 1-2.417 4.407 12.168 12.168 0 0 1-3.822 3.139c-1.49.784-3.17 1.176-5.042 1.176-1.78 0-3.415-.376-4.903-1.13a12.124 12.124 0 0 1-3.845-3.046 13.974 13.974 0 0 1-2.486-4.384 15.283 15.283 0 0 1-.875-5.146c0-1.691.283-3.353.852-4.984a14.54 14.54 0 0 1 2.44-4.407 11.894 11.894 0 0 1 3.822-3.115c1.488-.769 3.154-1.154 4.995-1.154 1.78 0 3.407.37 4.88 1.108a12.052 12.052 0 0 1 3.846 3.046 14.133 14.133 0 0 1 2.509 4.384 15.11 15.11 0 0 1 .875 5.122c0 1.692-.277 3.354-.83 4.984m-.16-16.336a15.181 15.181 0 0 0-4.812-3.83C76.74.477 74.652 0 72.35 0c-2.18 0-4.205.454-6.077 1.361a15.812 15.812 0 0 0-4.904 3.692 17.07 17.07 0 0 0-3.246 5.307 17.18 17.18 0 0 0-1.151 6.253c0 2.093.368 4.13 1.105 6.115a17.636 17.636 0 0 0 3.13 5.353 14.99 14.99 0 0 0 4.835 3.761c1.872.923 3.96 1.385 6.262 1.385 2.18 0 4.205-.446 6.078-1.339a15.236 15.236 0 0 0 4.88-3.668 17.316 17.316 0 0 0 3.224-5.308 17.193 17.193 0 0 0 1.15-6.252c0-2.062-.368-4.077-1.104-6.046a18.304 18.304 0 0 0-3.108-5.353M113.988 22.379l6.965-16.81 6.915 16.81h-13.88zm8.496-21.025c-.307-.756-.824-1.133-1.55-1.133-.753 0-1.283.377-1.59 1.133l-12.31 29.292c-.224.504-.196 1.021.083 1.553.28.531.74.797 1.382.797.335 0 .635-.084.9-.252.265-.168.468-.42.607-.755l2.818-6.799h16.2l2.797 6.799c.168.335.383.587.65.755.264.168.564.252.9.252.585 0 1.039-.252 1.36-.755.32-.504.356-1.021.105-1.553L122.484 1.354zM142.54.682c-.308-.307-.699-.461-1.173-.461-.475 0-.866.154-1.173.461-.307.308-.46.7-.46 1.175V31.36c0 .476.153.868.46 1.175.307.308.698.462 1.173.462.474 0 .865-.154 1.172-.462.307-.307.461-.699.461-1.175V1.857c0-.475-.154-.867-.46-1.175" fill="#2F4757"/>
        <path d="M97.938 28.707h-1.795v1.8a.86.86 0 0 1-.858.86.86.86 0 0 1-.859-.86v-1.8h-1.794a.86.86 0 0 1 0-1.72h1.794v-1.8a.86.86 0 0 1 .859-.86.86.86 0 0 1 .858.86v1.8h1.795a.86.86 0 0 1 0 1.72m3.02-3.25a6.03 6.03 0 0 0-1.31-1.983 6.042 6.042 0 0 0-1.976-1.313 6.246 6.246 0 0 0-2.387-.467c-.83 0-1.632.157-2.384.466a6.022 6.022 0 0 0-1.98 1.314c-.559.56-1 1.227-1.31 1.982a6.264 6.264 0 0 0-.465 2.39c0 .835.157 1.64.466 2.392.31.756.75 1.423 1.31 1.983a5.99 5.99 0 0 0 1.979 1.313c.752.31 1.554.466 2.384.466.83 0 1.631-.157 2.383-.466a6.016 6.016 0 0 0 1.98-1.314c.559-.559 1-1.226 1.31-1.983.31-.752.466-1.557.466-2.39 0-.832-.157-1.637-.466-2.39" fill="#F06723"/>
    </g>
</svg>
