<svg width="363" height="58" viewBox="0 0 363 58" fill="none" xmlns="http://www.w3.org/2000/svg">
<path fill-rule="evenodd" clip-rule="evenodd" d="M9.46257 27.0063H3.26562V13.3672H9.46257C10.8861 13.3672 12.1487 13.661 13.2517 14.2484C14.3542 14.8362 15.2262 15.6546 15.8688 16.7035C16.5105 17.7526 16.8318 18.9634 16.8318 20.3335C16.8318 21.6208 16.5105 22.7676 15.8688 23.7749C15.2262 24.782 14.3542 25.5726 13.2517 26.1462C12.1487 26.7194 10.8861 27.0063 9.46257 27.0063ZM13.5657 29.4812C14.0282 29.3156 14.4758 29.1223 14.9058 28.8954C16.4969 28.0562 17.7457 26.8954 18.6532 25.4122C19.56 23.9296 20.0141 22.2372 20.0141 20.3344C20.0141 18.3484 19.56 16.5928 18.6532 15.0681C17.7457 13.5431 16.4969 12.3545 14.9058 11.5008C13.3148 10.6473 11.4999 10.2207 9.46271 10.2207H1.63301C1.15799 10.2207 0.767392 10.375 0.460435 10.6824C0.152967 10.9904 0 11.3821 0 11.8572V41.3593C0 41.8351 0.152967 42.2266 0.460435 42.5342C0.767392 42.8427 1.15799 42.9957 1.63301 42.9957C2.10726 42.9957 2.4976 42.8427 2.80533 42.5342C3.11203 42.2266 3.26576 41.8351 3.26576 41.3593V30.1542H9.46271C9.70699 30.1542 9.9477 30.1475 10.1856 30.1355L17.7111 42.1566C17.8787 42.4366 18.067 42.6463 18.2765 42.786C18.4857 42.9262 18.7717 42.9957 19.1349 42.9957C19.8885 42.9957 20.3975 42.744 20.663 42.2407C20.928 41.7369 20.8513 41.1495 20.4328 40.4781L13.5657 29.4812Z" fill="#2F4757"/>
<path fill-rule="evenodd" clip-rule="evenodd" d="M49.9087 31.5973C49.3561 33.2281 48.5504 34.6969 47.4914 36.0042C46.4324 37.3122 45.1582 38.3578 43.6698 39.1425C42.1805 39.927 40.4999 40.3193 38.628 40.3193C36.8474 40.3193 35.2128 39.9427 33.7244 39.1884C32.2351 38.4349 30.9538 37.4199 29.8797 36.1426C28.8049 34.8666 27.9761 33.405 27.3934 31.7585C26.8099 30.1131 26.5186 28.3977 26.5186 26.613C26.5186 24.9214 26.802 23.2598 27.3704 21.629C27.938 19.9987 28.7517 18.5299 29.8107 17.2221C30.8697 15.9146 32.143 14.8765 33.6323 14.1068C35.1208 13.3382 36.7863 12.9531 38.628 12.9531C40.4078 12.9531 42.0352 13.3223 43.5086 14.0609C44.982 14.7991 46.2633 15.8143 47.3532 17.1065C48.4424 18.3989 49.2791 19.8605 49.8626 21.4908C50.4453 23.1216 50.7374 24.8294 50.7374 26.613C50.7374 28.3054 50.4612 29.967 49.9087 31.5973ZM49.7479 15.2606C48.4126 13.6614 46.8083 12.3846 44.9363 11.4306C43.0637 10.4771 40.9766 10 38.6744 10C36.4945 10 34.4686 10.454 32.5967 11.3614C30.724 12.2692 29.0894 13.5001 27.6931 15.053C26.2959 16.6072 25.2139 18.3759 24.447 20.3603C23.6793 22.3447 23.2959 24.4293 23.2959 26.6131C23.2959 28.7057 23.6642 30.7437 24.4009 32.728C25.1376 34.7124 26.1808 36.4971 27.5319 38.081C28.8823 39.6659 30.4938 40.9191 32.3665 41.8421C34.2384 42.765 36.3262 43.2265 38.6284 43.2265C40.8075 43.2265 42.8334 42.7809 44.7061 41.8882C46.578 40.9963 48.2054 39.7736 49.5867 38.2197C50.968 36.6663 52.0421 34.8967 52.8098 32.9124C53.5767 30.928 53.9609 28.8444 53.9609 26.6595C53.9609 24.5985 53.5925 22.5831 52.8558 20.6141C52.1191 18.6451 51.0831 16.8607 49.7479 15.2606Z" fill="#2F4757"/>
<path fill-rule="evenodd" clip-rule="evenodd" d="M83.5844 31.5973C83.0319 33.2281 82.2261 34.6969 81.1671 36.0042C80.1081 37.3122 78.834 38.3578 77.3455 39.1425C75.8563 39.927 74.1757 40.3193 72.3038 40.3193C70.5232 40.3193 68.8886 39.9427 67.4001 39.1884C65.9109 38.4349 64.6296 37.4199 63.5555 36.1426C62.4807 34.8666 61.6519 33.405 61.0692 31.7585C60.4857 30.1131 60.1943 28.3977 60.1943 26.613C60.1943 24.9214 60.4778 23.2598 61.0461 21.629C61.6138 19.9987 62.4274 18.5299 63.4864 17.2221C64.5454 15.9146 65.8188 14.8765 67.3081 14.1068C68.7965 13.3382 70.462 12.9531 72.3038 12.9531C74.0836 12.9531 75.711 13.3223 77.1844 14.0609C78.6578 14.7991 79.9391 15.8143 81.029 17.1065C82.1182 18.3989 82.9549 19.8605 83.5384 21.4908C84.1211 23.1216 84.4132 24.8294 84.4132 26.613C84.4132 28.3054 84.137 29.967 83.5844 31.5973ZM83.4237 15.2606C82.0884 13.6614 80.484 12.3846 78.6121 11.4306C76.7394 10.4771 74.6524 10 72.3502 10C70.1703 10 68.1444 10.454 66.2725 11.3614C64.3998 12.2692 62.7652 13.5001 61.3688 15.053C59.9717 16.6072 58.8896 18.3759 58.1228 20.3603C57.3551 22.3447 56.9717 24.4293 56.9717 26.6131C56.9717 28.7057 57.34 30.7437 58.0767 32.728C58.8134 34.7124 59.8566 36.4971 61.2077 38.081C62.558 39.6659 64.1696 40.9191 66.0422 41.8421C67.9142 42.765 70.002 43.2265 72.3042 43.2265C74.4833 43.2265 76.5092 42.7809 78.3819 41.8882C80.2538 40.9963 81.8812 39.7736 83.2625 38.2197C84.6438 36.6663 85.7179 34.8967 86.4856 32.9124C87.2524 30.928 87.6366 28.8444 87.6366 26.6595C87.6366 24.5985 87.2683 22.5831 86.5316 20.6141C85.7949 18.6451 84.7589 16.8607 83.4237 15.2606Z" fill="#2F4757"/>
<path fill-rule="evenodd" clip-rule="evenodd" d="M113.988 32.3796L120.953 15.5703L127.868 32.3796H113.988ZM122.484 11.3539C122.177 10.5983 121.66 10.2207 120.935 10.2207C120.181 10.2207 119.651 10.5983 119.344 11.3539L107.034 40.6458C106.81 41.1495 106.838 41.6672 107.118 42.1986C107.396 42.7304 107.857 42.9957 108.499 42.9957C108.834 42.9957 109.134 42.9121 109.4 42.744C109.665 42.576 109.867 42.3243 110.007 41.9887L112.824 35.1903H129.025L131.821 41.9887C131.989 42.3243 132.204 42.576 132.47 42.744C132.735 42.9121 133.035 42.9957 133.37 42.9957C133.957 42.9957 134.41 42.744 134.731 42.2407C135.052 41.7369 135.087 41.2195 134.836 40.6878L122.484 11.3539Z" fill="#2F4757"/>
<path fill-rule="evenodd" clip-rule="evenodd" d="M142.54 10.6824C142.232 10.375 141.842 10.2207 141.367 10.2207C140.892 10.2207 140.502 10.375 140.195 10.6824C139.888 10.9904 139.734 11.3821 139.734 11.8572V41.3593C139.734 41.8351 139.888 42.2266 140.195 42.534C140.502 42.8424 140.892 42.9957 141.367 42.9957C141.842 42.9957 142.232 42.8424 142.54 42.534C142.847 42.2266 143 41.8351 143 41.3593V11.8572C143 11.3821 142.847 10.9904 142.54 10.6824Z" fill="#2F4757"/>
<path fill-rule="evenodd" clip-rule="evenodd" d="M97.9377 38.7064H96.1428V40.5054C96.1428 40.9797 95.7578 41.3658 95.2843 41.3658C94.8108 41.3658 94.4258 40.9797 94.4258 40.5054V38.7064H92.6312C92.1577 38.7064 91.7725 38.3206 91.7725 37.8463C91.7725 37.3717 92.1577 36.9856 92.6312 36.9856H94.4258V35.1866C94.4258 34.7123 94.8108 34.3262 95.2843 34.3262C95.7578 34.3262 96.1428 34.7123 96.1428 35.1866V36.9856H97.9377C98.4112 36.9856 98.7961 37.3717 98.7961 37.8463C98.7961 38.3206 98.4112 38.7064 97.9377 38.7064ZM100.958 35.456C100.647 34.7004 100.207 34.0338 99.6478 33.4734C99.0876 32.913 98.4233 32.4717 97.6723 32.1607C96.9159 31.85 96.1139 31.6934 95.2846 31.6934C94.4546 31.6934 93.6524 31.8503 92.9006 32.1595C92.1455 32.4712 91.4802 32.913 90.921 33.4734C90.3618 34.0338 89.9213 34.7004 89.6113 35.4552C89.3021 36.2087 89.1455 37.013 89.1455 37.8465C89.1455 38.681 89.3023 39.4855 89.6113 40.2377C89.9211 40.9933 90.3623 41.6606 90.922 42.2206C91.4797 42.7807 92.146 43.223 92.9004 43.5335C93.6524 43.8427 94.4546 43.9996 95.2846 43.9996C96.1139 43.9996 96.9159 43.8429 97.6682 43.5337C98.4228 43.2225 99.0878 42.7807 99.6478 42.2195C100.206 41.6606 100.647 40.9933 100.958 40.2369C101.267 39.4842 101.424 38.6797 101.424 37.8465C101.424 37.0143 101.267 36.21 100.958 35.456Z" fill="#F06723"/>
<path fill-rule="evenodd" clip-rule="evenodd" d="M230.137 8.48972C222.723 5.22677 214.679 3.52112 206.544 3.52148C198.615 3.52185 190.599 5.14099 183 8.51364C183.755 15.5932 185.776 22.2925 188.826 28.3862L194.904 24.8733C193.061 21.1152 191.666 17.1877 190.784 13.0618C195.864 11.4073 201.145 10.6261 206.545 10.6261H206.546C211.868 10.6261 217.246 11.4243 222.347 13.0603C220.094 23.5656 214.551 33.1387 206.548 40.4009C203.442 37.5808 200.714 34.3889 198.4 30.9434L192.323 34.4489C196.146 40.2352 200.968 45.2984 206.546 49.3956C219.441 39.9241 228.351 25.2525 230.137 8.48972ZM257.514 15.8793C257.514 11.7266 254.265 8.71875 250.239 8.71875H246.008C245.602 8.71875 245.272 9.04825 245.272 9.45506V22.3043C245.272 22.7104 245.602 23.0407 246.008 23.0407H250.239C254.265 23.0407 257.514 20.0531 257.514 15.8793ZM250.24 20.3829C252.733 20.3829 254.695 18.7877 254.695 15.8819C254.695 12.9971 252.733 11.3809 250.24 11.3809H248.094V20.3829H250.24ZM272.575 14.1219C272.575 11.0938 270.368 8.7207 266.362 8.7207H262.234C261.827 8.7207 261.498 9.0502 261.498 9.45701V22.3059C261.498 22.7124 261.827 23.0422 262.234 23.0422H263.583C263.989 23.0422 264.318 22.7124 264.318 22.3059V19.5437H265.892C267.302 19.5845 267.65 19.9118 268.753 21.6098L269.456 22.7039C269.591 22.9145 269.824 23.0422 270.074 23.0422H271.491C272.073 23.0422 272.425 22.3965 272.109 21.9065L271.615 21.1393C270.736 19.748 270.102 19.0117 269.489 18.6229C271.43 17.8656 272.575 16.2494 272.575 14.1219ZM264.318 16.8844H266.628C268.467 16.8844 269.898 16.0457 269.898 14.1225C269.898 12.3016 268.467 11.3809 266.628 11.3809H264.318V16.8844ZM282.771 22.3063V21.1186C282.771 20.7122 282.442 20.3823 282.036 20.3823H281.055V11.3802H282.036C282.442 11.3802 282.771 11.0507 282.771 10.6439V9.45701C282.771 9.0502 282.442 8.7207 282.036 8.7207H277.253C276.847 8.7207 276.518 9.0502 276.518 9.45701V10.6439C276.518 11.0507 276.847 11.3802 277.253 11.3802H278.234V20.3823H277.253C276.847 20.3823 276.518 20.7122 276.518 21.1186V22.3063C276.518 22.7124 276.847 23.0426 277.253 23.0426H282.036C282.442 23.0426 282.771 22.7124 282.771 22.3063ZM292.024 22.5849L286.725 9.73596C286.525 9.25147 286.881 8.71875 287.405 8.71875H288.679C289.134 8.71875 289.541 8.99707 289.707 9.42045L293.009 17.864L296.311 9.42045C296.476 8.99707 296.885 8.71875 297.338 8.71875H298.619C299.141 8.71875 299.497 9.24852 299.3 9.73264L294.074 22.5816C293.962 22.8588 293.692 23.0403 293.393 23.0403H292.704C292.406 23.0403 292.138 22.8603 292.024 22.5849ZM312.382 16.4343V15.247C312.382 14.8401 312.053 14.5107 311.647 14.5107H306.189V11.3806H312.157C312.564 11.3806 312.893 11.0507 312.893 10.6443V9.45701C312.893 9.0502 312.564 8.7207 312.157 8.7207H304.105C303.699 8.7207 303.369 9.0502 303.369 9.45701V22.3059C303.369 22.7124 303.699 23.0422 304.105 23.0422H312.157C312.564 23.0422 312.893 22.7124 312.893 22.3059V21.1186C312.893 20.7122 312.564 20.3823 312.157 20.3823H306.189V17.1706H311.647C312.053 17.1706 312.382 16.8407 312.382 16.4343ZM321.639 8.71875C325.644 8.71875 327.852 11.0919 327.852 14.1199C327.852 16.2475 326.707 17.8637 324.765 18.621C325.378 19.0097 326.012 19.746 326.891 21.1373L327.385 21.9045C327.701 22.3945 327.35 23.0403 326.767 23.0403H325.35C325.1 23.0403 324.868 22.9125 324.732 22.702L324.03 21.6078C322.926 19.9099 322.579 19.5826 321.168 19.5417H319.595V22.304C319.595 22.7104 319.265 23.0403 318.859 23.0403H317.51C317.104 23.0403 316.774 22.7104 316.774 22.304V9.45506C316.774 9.04825 317.104 8.71875 317.51 8.71875H321.639ZM321.904 16.8844H319.595V11.3809H321.904C323.743 11.3809 325.174 12.3016 325.174 14.1225C325.174 16.0457 323.743 16.8844 321.904 16.8844ZM345.405 15.8819C345.405 19.9327 342.135 23.1857 338.11 23.1857C334.083 23.1857 330.834 19.9327 330.834 15.8819C330.834 11.8514 334.083 8.57812 338.11 8.57812C342.135 8.57812 345.405 11.8514 345.405 15.8819ZM338.11 20.5248C335.616 20.5248 333.654 18.6425 333.654 15.8806C333.654 13.1389 335.616 11.2363 338.11 11.2363C340.623 11.2363 342.585 13.1389 342.585 15.8806C342.585 18.6425 340.623 20.5248 338.11 20.5248ZM363 15.8819C363 19.9327 359.73 23.1857 355.704 23.1857C351.678 23.1857 348.429 19.9327 348.429 15.8819C348.429 11.8514 351.678 8.57812 355.704 8.57812C359.73 8.57812 363 11.8514 363 15.8819ZM355.704 20.5248C353.211 20.5248 351.249 18.6425 351.249 15.8806C351.249 13.1389 353.211 11.2363 355.704 11.2363C358.218 11.2363 360.18 13.1389 360.18 15.8806C360.18 18.6425 358.218 20.5248 355.704 20.5248Z" fill="#2F4757"/>
<path d="M253.185 39.3916C253.046 39.3916 252.939 39.3538 252.863 39.2782C252.788 39.1963 252.75 39.0829 252.75 38.938V33.1073C252.75 32.9624 252.788 32.8522 252.863 32.7766C252.945 32.701 253.056 32.6632 253.194 32.6632H255.443C256.161 32.6632 256.713 32.8396 257.097 33.1924C257.488 33.5452 257.683 34.0397 257.683 34.676C257.683 35.3186 257.488 35.8163 257.097 36.1691C256.713 36.5219 256.161 36.6983 255.443 36.6983H253.629V38.938C253.629 39.0829 253.591 39.1963 253.515 39.2782C253.446 39.3538 253.336 39.3916 253.185 39.3916ZM253.629 35.9896H255.33C255.821 35.9896 256.19 35.8793 256.435 35.6588C256.687 35.432 256.813 35.1044 256.813 34.676C256.813 34.2476 256.687 33.9263 256.435 33.7121C256.19 33.4916 255.821 33.3814 255.33 33.3814H253.629V35.9896Z" fill="#2F4757"/>
<path d="M261.367 39.4105C260.737 39.4105 260.192 39.2719 259.732 38.9947C259.272 38.7112 258.913 38.3143 258.655 37.804C258.403 37.2874 258.277 36.6826 258.277 35.9896C258.277 35.4667 258.349 34.9973 258.494 34.5815C258.639 34.1594 258.844 33.8003 259.108 33.5042C259.379 33.2018 259.704 32.9719 260.082 32.8144C260.466 32.6569 260.894 32.5781 261.367 32.5781C261.997 32.5781 262.542 32.7167 263.002 32.9939C263.462 33.2711 263.818 33.6649 264.07 34.1752C264.322 34.6855 264.448 35.2871 264.448 35.9801C264.448 36.503 264.375 36.9755 264.23 37.3976C264.085 37.8197 263.877 38.182 263.606 38.4844C263.342 38.7868 263.021 39.0167 262.643 39.1742C262.265 39.3317 261.839 39.4105 261.367 39.4105ZM261.367 38.6356C261.82 38.6356 262.208 38.5316 262.529 38.3237C262.85 38.1158 263.096 37.8134 263.266 37.4165C263.443 37.0196 263.531 36.544 263.531 35.9896C263.531 35.1517 263.342 34.5028 262.964 34.0429C262.592 33.583 262.06 33.353 261.367 33.353C260.913 33.353 260.523 33.457 260.195 33.6649C259.874 33.8665 259.628 34.1657 259.458 34.5626C259.288 34.9532 259.203 35.4289 259.203 35.9896C259.203 36.8212 259.392 37.4701 259.77 37.9363C260.148 38.4025 260.68 38.6356 261.367 38.6356Z" fill="#2F4757"/>
<path d="M267.659 39.3916C267.533 39.3916 267.432 39.3601 267.357 39.2971C267.281 39.2341 267.218 39.1333 267.168 38.9947L265.107 33.1168C265.051 32.9719 265.057 32.849 265.126 32.7482C265.202 32.6474 265.325 32.597 265.495 32.597C265.615 32.597 265.709 32.6254 265.778 32.6821C265.848 32.7388 265.904 32.8333 265.949 32.9656L267.848 38.5411H267.508L269.454 32.9845C269.505 32.8522 269.565 32.7545 269.634 32.6915C269.703 32.6285 269.795 32.597 269.908 32.597C270.028 32.597 270.119 32.6285 270.182 32.6915C270.251 32.7545 270.308 32.8553 270.352 32.9939L272.261 38.5411H271.959L273.877 32.9656C273.921 32.8396 273.978 32.7482 274.047 32.6915C274.116 32.6285 274.214 32.597 274.34 32.597C274.485 32.597 274.592 32.6474 274.661 32.7482C274.731 32.849 274.74 32.9719 274.69 33.1168L272.611 39.0041C272.567 39.1364 272.507 39.2341 272.431 39.2971C272.356 39.3601 272.255 39.3916 272.129 39.3916C271.997 39.3916 271.893 39.3601 271.817 39.2971C271.741 39.2341 271.678 39.1333 271.628 38.9947L269.785 33.7027H269.993L268.141 39.0041C268.091 39.1364 268.028 39.2341 267.952 39.2971C267.883 39.3601 267.785 39.3916 267.659 39.3916Z" fill="#2F4757"/>
<path d="M276.197 39.3254C276.046 39.3254 275.929 39.2845 275.847 39.2026C275.765 39.1207 275.724 39.0041 275.724 38.8529V33.1357C275.724 32.9845 275.765 32.8679 275.847 32.786C275.929 32.7041 276.046 32.6632 276.197 32.6632H279.674C279.794 32.6632 279.885 32.6947 279.948 32.7577C280.018 32.8144 280.052 32.8994 280.052 33.0128C280.052 33.1325 280.018 33.2239 279.948 33.2869C279.885 33.3499 279.794 33.3814 279.674 33.3814H276.575V35.5832H279.476C279.596 35.5832 279.687 35.6147 279.75 35.6777C279.813 35.7407 279.844 35.8289 279.844 35.9423C279.844 36.062 279.813 36.1534 279.75 36.2164C279.687 36.2731 279.596 36.3014 279.476 36.3014H276.575V38.6072H279.674C279.794 38.6072 279.885 38.6387 279.948 38.7017C280.018 38.7584 280.052 38.8466 280.052 38.9663C280.052 39.086 280.018 39.1774 279.948 39.2404C279.885 39.2971 279.794 39.3254 279.674 39.3254H276.197Z" fill="#2F4757"/>
<path d="M281.516 39.3916C281.377 39.3916 281.27 39.3538 281.195 39.2782C281.119 39.1963 281.081 39.0829 281.081 38.938V33.1073C281.081 32.9624 281.119 32.8522 281.195 32.7766C281.277 32.701 281.387 32.6632 281.526 32.6632H283.775C284.493 32.6632 285.044 32.8333 285.428 33.1735C285.819 33.5074 286.014 33.983 286.014 34.6004C286.014 35.0036 285.926 35.3501 285.75 35.6399C285.573 35.9234 285.318 36.1408 284.984 36.292C284.65 36.4432 284.247 36.5188 283.775 36.5188L283.869 36.3865H284.077C284.329 36.3865 284.546 36.4495 284.729 36.5755C284.918 36.7015 285.085 36.9031 285.23 37.1803L286.099 38.7773C286.156 38.8781 286.181 38.9758 286.175 39.0703C286.169 39.1648 286.134 39.2435 286.071 39.3065C286.008 39.3632 285.917 39.3916 285.797 39.3916C285.671 39.3916 285.57 39.3664 285.495 39.316C285.419 39.2593 285.353 39.1774 285.296 39.0703L284.275 37.1992C284.137 36.9346 283.979 36.7613 283.803 36.6794C283.627 36.5912 283.39 36.5471 283.094 36.5471H281.96V38.938C281.96 39.0829 281.922 39.1963 281.847 39.2782C281.778 39.3538 281.667 39.3916 281.516 39.3916ZM281.96 35.8667H283.633C284.137 35.8667 284.515 35.7628 284.767 35.5549C285.019 35.3407 285.145 35.0288 285.145 34.6193C285.145 34.2098 285.019 33.9011 284.767 33.6932C284.515 33.4853 284.137 33.3814 283.633 33.3814H281.96V35.8667Z" fill="#2F4757"/>
<path d="M287.732 39.3254C287.581 39.3254 287.465 39.2845 287.383 39.2026C287.301 39.1207 287.26 39.0041 287.26 38.8529V33.1357C287.26 32.9845 287.301 32.8679 287.383 32.786C287.465 32.7041 287.581 32.6632 287.732 32.6632H291.21C291.33 32.6632 291.421 32.6947 291.484 32.7577C291.553 32.8144 291.588 32.8994 291.588 33.0128C291.588 33.1325 291.553 33.2239 291.484 33.2869C291.421 33.3499 291.33 33.3814 291.21 33.3814H288.11V35.5832H291.011C291.131 35.5832 291.222 35.6147 291.285 35.6777C291.348 35.7407 291.38 35.8289 291.38 35.9423C291.38 36.062 291.348 36.1534 291.285 36.2164C291.222 36.2731 291.131 36.3014 291.011 36.3014H288.11V38.6072H291.21C291.33 38.6072 291.421 38.6387 291.484 38.7017C291.553 38.7584 291.588 38.8466 291.588 38.9663C291.588 39.086 291.553 39.1774 291.484 39.2404C291.421 39.2971 291.33 39.3254 291.21 39.3254H287.732Z" fill="#2F4757"/>
<path d="M293.089 39.3254C292.938 39.3254 292.822 39.2845 292.74 39.2026C292.658 39.1207 292.617 39.0041 292.617 38.8529V33.1357C292.617 32.9845 292.658 32.8679 292.74 32.786C292.822 32.7041 292.938 32.6632 293.089 32.6632H294.913C296.003 32.6632 296.841 32.9498 297.427 33.5231C298.019 34.0901 298.315 34.9123 298.315 35.9896C298.315 36.5251 298.24 37.0007 298.088 37.4165C297.937 37.8323 297.717 38.182 297.427 38.4655C297.137 38.7427 296.781 38.9569 296.359 39.1081C295.943 39.253 295.461 39.3254 294.913 39.3254H293.089ZM293.496 38.5789H294.857C295.285 38.5789 295.657 38.5253 295.972 38.4182C296.287 38.3111 296.548 38.1505 296.756 37.9363C296.97 37.7221 297.131 37.4543 297.238 37.133C297.345 36.8054 297.399 36.4243 297.399 35.9896C297.399 35.1265 297.184 34.4807 296.756 34.0523C296.334 33.6239 295.701 33.4097 294.857 33.4097H293.496V38.5789Z" fill="#2F4757"/>
<path d="M302.253 39.3254C302.102 39.3254 301.985 39.2845 301.904 39.2026C301.822 39.1207 301.781 39.0041 301.781 38.8529V33.1357C301.781 32.9845 301.822 32.8679 301.904 32.786C301.985 32.7041 302.102 32.6632 302.253 32.6632H304.493C304.953 32.6632 305.343 32.7325 305.665 32.8711C305.992 33.0097 306.241 33.2081 306.411 33.4664C306.581 33.7247 306.666 34.0366 306.666 34.402C306.666 34.8115 306.547 35.1548 306.307 35.432C306.068 35.7092 305.74 35.8951 305.324 35.9896V35.8478C305.791 35.9045 306.156 36.0778 306.421 36.3676C306.692 36.6511 306.827 37.0228 306.827 37.4827C306.827 38.0749 306.632 38.5316 306.241 38.8529C305.857 39.1679 305.312 39.3254 304.606 39.3254H302.253ZM302.631 38.6356H304.512C305.003 38.6356 305.369 38.5411 305.608 38.3521C305.847 38.1568 305.967 37.8607 305.967 37.4638C305.967 37.0669 305.847 36.7739 305.608 36.5849C305.369 36.3959 305.003 36.3014 304.512 36.3014H302.631V38.6356ZM302.631 35.6021H304.361C304.839 35.6021 305.198 35.5076 305.438 35.3186C305.684 35.1233 305.806 34.843 305.806 34.4776C305.806 34.1122 305.684 33.835 305.438 33.646C305.198 33.4507 304.839 33.353 304.361 33.353H302.631V35.6021Z" fill="#2F4757"/>
<path d="M309.917 39.3916C309.778 39.3916 309.671 39.3538 309.596 39.2782C309.52 39.1963 309.482 39.0797 309.482 38.9285V35.8762L309.671 36.4621L307.328 33.2113C307.265 33.1231 307.233 33.0317 307.233 32.9372C307.24 32.8364 307.277 32.7545 307.347 32.6915C307.416 32.6285 307.51 32.597 307.63 32.597C307.725 32.597 307.81 32.6191 307.885 32.6632C307.961 32.7073 308.033 32.7797 308.103 32.8805L310.049 35.5643H309.832L311.779 32.8805C311.848 32.7734 311.917 32.701 311.987 32.6632C312.056 32.6191 312.144 32.597 312.251 32.597C312.365 32.597 312.453 32.6285 312.516 32.6915C312.585 32.7482 312.62 32.8238 312.62 32.9183C312.626 33.0128 312.591 33.1105 312.516 33.2113L310.172 36.4621L310.361 35.8762V38.9285C310.361 39.2372 310.213 39.3916 309.917 39.3916Z" fill="#2F4757"/>
<path fill-rule="evenodd" clip-rule="evenodd" d="M321.882 36.1837H320.322V32.75H321.882C322.241 32.75 322.559 32.824 322.836 32.9718C323.114 33.1198 323.333 33.3259 323.495 33.5899C323.657 33.854 323.738 34.1589 323.738 34.5038C323.738 34.8279 323.657 35.1166 323.495 35.3701C323.333 35.6237 323.114 35.8227 322.836 35.9671C322.559 36.1114 322.241 36.1837 321.882 36.1837ZM322.915 36.8059C323.032 36.7642 323.144 36.7155 323.253 36.6584C323.653 36.4471 323.967 36.1549 324.196 35.7815C324.424 35.4082 324.538 34.9822 324.538 34.5031C324.538 34.0032 324.424 33.5612 324.196 33.1774C323.967 32.7935 323.653 32.4942 323.253 32.2793C322.852 32.0644 322.395 31.957 321.882 31.957H319.911C319.792 31.957 319.693 31.9959 319.616 32.0733C319.539 32.1508 319.5 32.2494 319.5 32.369V39.7962C319.5 39.916 319.539 40.0145 319.616 40.092C319.693 40.1696 319.792 40.2082 319.911 40.2082C320.03 40.2082 320.129 40.1696 320.206 40.092C320.283 40.0145 320.322 39.916 320.322 39.7962V36.9753H321.882C321.944 36.9753 322.004 36.9736 322.064 36.9706L323.959 39.9969C324.001 40.0674 324.048 40.1202 324.101 40.1554C324.154 40.1907 324.226 40.2082 324.317 40.2082C324.507 40.2082 324.635 40.1448 324.702 40.0181C324.769 39.8913 324.749 39.7434 324.644 39.5743L322.915 36.8059Z" fill="#2F4757"/>
<path fill-rule="evenodd" clip-rule="evenodd" d="M332.064 37.3383C331.925 37.7489 331.722 38.1186 331.456 38.4477C331.189 38.777 330.868 39.0403 330.493 39.2378C330.119 39.4353 329.695 39.5341 329.224 39.5341C328.776 39.5341 328.364 39.4393 327.99 39.2494C327.615 39.0597 327.292 38.8042 327.022 38.4826C326.751 38.1614 326.543 37.7934 326.396 37.3789C326.249 36.9647 326.176 36.5328 326.176 36.0835C326.176 35.6576 326.247 35.2393 326.39 34.8288C326.533 34.4183 326.738 34.0486 327.004 33.7193C327.271 33.3902 327.592 33.1288 327.967 32.9351C328.341 32.7416 328.761 32.6446 329.224 32.6446C329.672 32.6446 330.082 32.7376 330.453 32.9235C330.824 33.1093 331.146 33.3649 331.421 33.6902C331.695 34.0156 331.906 34.3836 332.052 34.794C332.199 35.2046 332.273 35.6345 332.273 36.0835C332.273 36.5096 332.203 36.9279 332.064 37.3383ZM332.024 33.2249C331.688 32.8222 331.284 32.5008 330.813 32.2606C330.342 32.0206 329.816 31.9005 329.237 31.9005C328.688 31.9005 328.178 32.0148 327.707 32.2432C327.235 32.4718 326.824 32.7816 326.472 33.1726C326.12 33.5638 325.848 34.0091 325.655 34.5087C325.462 35.0083 325.365 35.5331 325.365 36.0828C325.365 36.6097 325.458 37.1227 325.643 37.6223C325.829 38.1218 326.091 38.5711 326.432 38.9699C326.771 39.3689 327.177 39.6844 327.649 39.9167C328.12 40.1491 328.645 40.2653 329.225 40.2653C329.774 40.2653 330.284 40.1531 330.755 39.9284C331.226 39.7038 331.636 39.396 331.984 39.0048C332.332 38.6137 332.602 38.1683 332.795 37.6687C332.988 37.1691 333.085 36.6446 333.085 36.0945C333.085 35.5757 332.992 35.0683 332.807 34.5726C332.621 34.0769 332.36 33.6277 332.024 33.2249Z" fill="#2F4757"/>
<path fill-rule="evenodd" clip-rule="evenodd" d="M340.543 37.3382C340.403 37.7488 340.201 38.1185 339.934 38.4477C339.667 38.777 339.347 39.0402 338.972 39.2377C338.597 39.4352 338.174 39.534 337.703 39.534C337.254 39.534 336.843 39.4392 336.468 39.2493C336.093 39.0596 335.771 38.8041 335.5 38.4825C335.23 38.1613 335.021 37.7933 334.874 37.3788C334.728 36.9646 334.654 36.5327 334.654 36.0834C334.654 35.6576 334.726 35.2393 334.869 34.8287C335.012 34.4183 335.216 34.0485 335.483 33.7192C335.75 33.3901 336.07 33.1287 336.445 32.935C336.82 32.7415 337.239 32.6445 337.703 32.6445C338.151 32.6445 338.56 32.7375 338.931 32.9234C339.302 33.1092 339.625 33.3648 339.899 33.6901C340.173 34.0155 340.384 34.3835 340.531 34.7939C340.678 35.2045 340.751 35.6344 340.751 36.0834C340.751 36.5095 340.682 36.9278 340.543 37.3382ZM340.502 33.2248C340.166 32.8221 339.762 32.5007 339.291 32.2605C338.819 32.0205 338.294 31.9004 337.714 31.9004C337.165 31.9004 336.655 32.0147 336.184 32.2431C335.713 32.4717 335.301 32.7815 334.95 33.1725C334.598 33.5637 334.325 34.009 334.132 34.5086C333.939 35.0082 333.843 35.533 333.843 36.0828C333.843 36.6096 333.935 37.1226 334.121 37.6222C334.306 38.1218 334.569 38.571 334.909 38.9698C335.249 39.3688 335.655 39.6843 336.126 39.9166C336.597 40.149 337.123 40.2652 337.703 40.2652C338.251 40.2652 338.761 40.153 339.233 39.9283C339.704 39.7037 340.114 39.3959 340.461 39.0047C340.809 38.6136 341.079 38.1682 341.273 37.6686C341.466 37.169 341.562 36.6445 341.562 36.0944C341.562 35.5756 341.47 35.0682 341.284 34.5725C341.099 34.0768 340.838 33.6276 340.502 33.2248Z" fill="#2F4757"/>
<path fill-rule="evenodd" clip-rule="evenodd" d="M348.197 37.5345L349.951 33.3027L351.691 37.5345H348.197ZM350.335 32.2423C350.258 32.0521 350.128 31.957 349.945 31.957C349.756 31.957 349.622 32.0521 349.545 32.2423L346.446 39.6166C346.389 39.7434 346.396 39.8737 346.467 40.0075C346.537 40.1414 346.653 40.2082 346.815 40.2082C346.899 40.2082 346.974 40.1871 347.041 40.1448C347.108 40.1025 347.159 40.0391 347.194 39.9546L347.903 38.2431H351.982L352.686 39.9546C352.728 40.0391 352.782 40.1025 352.849 40.1448C352.916 40.1871 352.992 40.2082 353.076 40.2082C353.223 40.2082 353.338 40.1448 353.418 40.0181C353.499 39.8913 353.508 39.761 353.445 39.6271L350.335 32.2423Z" fill="#2F4757"/>
<path fill-rule="evenodd" clip-rule="evenodd" d="M355.384 32.0733C355.307 31.9959 355.208 31.957 355.089 31.957C354.969 31.957 354.871 31.9959 354.794 32.0733C354.716 32.1508 354.678 32.2494 354.678 32.369V39.7962C354.678 39.916 354.716 40.0145 354.794 40.0919C354.871 40.1696 354.969 40.2082 355.089 40.2082C355.208 40.2082 355.307 40.1696 355.384 40.0919C355.461 40.0145 355.5 39.916 355.5 39.7962V32.369C355.5 32.2494 355.461 32.1508 355.384 32.0733Z" fill="#2F4757"/>
<path fill-rule="evenodd" clip-rule="evenodd" d="M344.156 39.1281H343.704V39.581C343.704 39.7004 343.607 39.7976 343.488 39.7976C343.368 39.7976 343.271 39.7004 343.271 39.581V39.1281H342.82C342.7 39.1281 342.604 39.031 342.604 38.9116C342.604 38.7921 342.7 38.6949 342.82 38.6949H343.271V38.242C343.271 38.1226 343.368 38.0254 343.488 38.0254C343.607 38.0254 343.704 38.1226 343.704 38.242V38.6949H344.156C344.275 38.6949 344.372 38.7921 344.372 38.9116C344.372 39.031 344.275 39.1281 344.156 39.1281ZM344.915 38.3105C344.837 38.1203 344.726 37.9525 344.585 37.8114C344.444 37.6703 344.277 37.5592 344.088 37.4809C343.898 37.4027 343.696 37.3633 343.487 37.3633C343.278 37.3633 343.076 37.4028 342.887 37.4806C342.697 37.5591 342.529 37.6703 342.388 37.8114C342.248 37.9525 342.137 38.1203 342.059 38.3103C341.981 38.5 341.941 38.7025 341.941 38.9123C341.941 39.1224 341.981 39.325 342.059 39.5143C342.137 39.7045 342.248 39.8725 342.389 40.0135C342.529 40.1545 342.697 40.2659 342.887 40.344C343.076 40.4219 343.278 40.4614 343.487 40.4614C343.696 40.4614 343.898 40.4219 344.087 40.3441C344.277 40.2657 344.444 40.1545 344.585 40.0133C344.726 39.8725 344.837 39.7045 344.915 39.5141C344.993 39.3246 345.032 39.1221 345.032 38.9123C345.032 38.7028 344.993 38.5003 344.915 38.3105Z" fill="#FF7200"/>
<rect x="245.774" y="27.4012" width="116.775" height="17.55" rx="3.6" stroke="#FF7200" stroke-width="0.9"/>
<path opacity="0.3" d="M164.5 0V57.5" stroke="#2F4757"/>
</svg>
